<svg width="596" height="410" viewBox="0 0 596 410" xmlns="http://www.w3.org/2000/svg"><title>Artboard</title><g id="Page-1" fill="none" fill-rule="evenodd"><g id="Artboard" fill="#3E4835"><g id="logo"><g id="Group-43"><path d="M449.522 139.278c3.74.682 7.5 1.39 11.238 2.134 2.132.435 4.516-1.202 6.296-2.22 4.456-2.565 8.614-5.598 12.647-8.763 4.043-3.134 7.962-6.447 11.52-10.138-.434.478 4.975-5.344 3.702-5.594-13.318-2.69-26.78-4.895-40.36-6.58.154-.594.256-1.19.41-1.786 1.606-6.394 3.837-12.603 6.753-18.518 14.35-.967 28.374 9.735 37.42 20.875 3.047 3.73 36.908-23.38 34.195-26.715-7.994-9.86-17.968-18.41-30.844-20.598-10.487-1.807-20.233 1.69-29.236 6.933-16.374 9.56-31.346 21.86-41.432 37.555-54.476-4.147-113.325-2.18-163.598 21.262-8.812 4.14-17.613 10.194-24.73 16.757-1.11 1.042-11.08 12.613-3.814 7.693 37.794-25.637 120.893-24.107 180.255-16.798-8.305 33.91-5.095 70.114-11.253 104.383-1.53 8.4-3.2 19.545-9.242 25.58-3.81 3.805-9.523 4.32-14.48 3.967-10.193-.72-19.805-5.84-27.53-12.292-3.828-3.19-4.94-3.85-7.948-7.863 12.23-11.53 25.716-25.72 35.14-37.533 21.942-27.424 22.46-51.38 11.096-56.854-11.897-5.72-27.187-3.58-38.442 1.927-14.85 7.215-29.196 17.06-40.963 28.515-6.577 6.394-11.976 14.167-15.1 22.79-7.086 19.342-5.387 37.98 5.975 55.647-27.835 17.137-23.738 10.074-19.297-49.534 2.198-29.398 5.975-55.367-3.56-58.98-8.896-3.374-19.077-1.185-39.306 14.308-13.904 10.605-23.56 21.17-35.37 34.044.1-.875 5.917-22.987 8.807-32.53 4.42-14.504 8.23-29.17 10.34-44.196 1.59-11.46 2.31-23.117 2.13-34.692-.137-10.145-.888-21.35-5.742-30.487-1.35-2.548-36.58 18.798-37.266 25.42-3.386 33.042-9.856 129.66-11.118 137.834-8.655 10.415-29.435 35.28-47.362 40.21-53.854 14.785-58.785-88.164-36.935-146.742 7.787-20.937 32.56-39.47 37.314-34.062 12.442 14.09-.204 56.102-4.558 66.816-3.014 7.43-9.132 20.255-3.76 21.258 9.234 1.702 23.503-4.06 31.83-8.458 32.626-17.224 21.768-56.52 18.883-68.24-3.1-12.568-9.714-31.087-24.478-32.27-29.62-2.333-94.265 34.75-108.85 110.95C15.085 298.21 90.215 295.68 98.852 296.23c12.056.813 23.68-6.65 33.465-12.89 14.573-9.295 29.844-22.514 42.3-34.53-.267 2.438-3.294 41.23-3.663 45.566-.794 9.435 32.184-7.32 32.458-9.774 5.137-44.69 3.08-55.705 24.335-78.844 14.71-16.02 29.757-30.49 27.476-3.803-.667 7.808-1.755 18.824-3.053 34.69-2.78 34.553-4.434 46.4-1.697 53.677 4.17 11.084 18.052 6.48 25.936 2.927 11.512-5.16 27.134-12.272 37.43-20.066 11.06 13.937 27.047 23.325 45.496 22.682 12.374-.44 23.694-6.018 33.893-12.51 12.81-8.126 25.848-18.497 34.807-30.878 10.34-14.232 14.068-31.688 16.315-48.81 2.808-21.276 3.036-42.975 5.175-64.39m-108.56 38.594c7.29-5.707 17.92-2.88 23.35 2.123 15.733 14.548 7.82 23.946 1.06 32.946-6.966 9.308-13.86 15.126-23.42 24.1-6.81-11.577-9.645-23.164-9.77-36.353-.114-8.448.544-16.38 8.78-22.815" id="Fill-1"/><path d="M478.054 157.84c-1.573 1.542-3.183 2.852-4.898 4.208-.996.8-9.125 6.703-7.813 8.37.734.925 5.082-1.63 5.853-2.02 5.623-2.845 11.005-6.208 16.317-9.6 8.772-5.61 17.402-11.748 25.468-18.37 2.32-1.878 4.572-3.856 6.7-5.977 1.965-1.974 4.39-3.612 4.39-6.79 0-3.065-3.53-6.1-5.723-7.723-2.896-2.148-6.748-4.988-10.405-2.982-4.844 2.64-9.392 6.268-13.388 10.092-2.835 2.768-5.986 5.182-8.794 8.01-2.22 2.263-5.317 7.22-4.01 13.304.94 4.383-2.01 7.876-3.696 9.48" id="Fill-3"/><path d="M535.522 150.48c-13.703-1.318-26.21 6.224-31.64 9.735-24.61 15.91-37.866 27.53-33.336 46 2.71 10.956 13.56 18.432 23.105 23.793 32.742 18.362 39.96 37.15 26.09 46.442-11.678 7.83-28.45-4.848-34.046-11.02-13.703-15.084-16.162-22.057-20.857-35.334-1.41-3.98-10.575.543-18.765 16.473-9.958 19.364-7.462 25.59-4.7 30.065 12.52 20.387 52.05 32.486 96.332 2.52 21.323-14.445 21.283-37.72 19.14-46.726-3.983-16.984-21.605-25.25-35.504-31.57-9.333-4.246-33.098-13.79-22.115-24.778 10.028-10.045 29.67-5.96 33.722 4.365 1.453 3.728 2.127 11.68 6.945 10.52 8.428-2.047 14.177-7.574 21.425-13.796 3.924-3.346-2.808-24.482-25.795-26.69" id="Fill-4"/><path id="Fill-5" d="M144.074 340.082l2.133-.913V326.65l-2.133-.98v-1.45h6.338l8.515 10.728h.178v-8.19l-2.795-1.09v-1.448h7.384v1.416l-2.043.834v15.273h-3.17l-9.554-11.95h-.144v9.22l3.086 1.036v1.456h-7.794z"/><path id="Fill-6" d="M168.27 340.082l2.253-.796v-12.724l-2.254-.89v-1.45h9.314v1.416l-2.103.775v12.837l2.104.8v1.456h-9.315z"/><path id="Fill-7" d="M182.095 340.285l8.774-13.843h-4.772l-1.307 3.438h-2.016v-5.658h13.822l.365 1.006-9.19 14.02h5.232l2.2-3.32 1.843.3-.63 5.277h-14.108z"/><path id="Fill-8" d="M212.724 340.082l2.25-.796v-5.697h-6.35v5.66l2.117.8v1.456h-9.188v-1.424l2.238-.832v-12.688l-2.238-.89v-1.45h9.19v1.416l-2.117.775v5.395h6.35v-5.278l-2.25-.86v-1.448h9.22v1.416l-2.144.804v12.782l2.144.827v1.456h-9.22z"/><path id="Fill-9" d="M226.457 340.082l2.132-.913V326.65l-2.133-.98v-1.45h6.336l8.51 10.728h.18v-8.19l-2.792-1.09v-1.448h7.386v1.416l-2.044.834v15.273h-3.162l-9.553-11.95h-.153v9.22l3.09 1.036v1.456h-7.797z"/><path id="Fill-10" d="M254.378 340.082l2.25-.796v-4.363l-4.804-8.54-1.688-.712v-1.448h8.362v1.416l-1.753.6 3.243 6.483h.17l3.062-6.217-1.848-.832v-1.448h6.544v1.416l-1.796.865-4.54 8.303v4.444l2.108.8v1.456h-9.31z"/><path id="Fill-11" d="M280.328 340.082l2.134-.913V326.65l-2.134-.98v-1.45h6.34l8.52 10.728h.16v-8.19l-2.783-1.09v-1.448h7.384v1.416l-2.045.834v15.273h-3.163l-9.546-11.95h-.158v9.22l3.088 1.036v1.456h-7.798z"/><path d="M312.88 341.745c-5.328 0-9.013-3.087-9.013-8.393 0-5.75 3.897-9.396 9.48-9.396 5.458 0 8.956 2.903 8.956 8.24 0 5.37-3.597 9.55-9.423 9.55m.264-15.84c-2.835 0-3.793 2.312-3.793 6.815 0 4.277.96 7.038 3.62 7.038 3.133 0 3.827-2.905 3.827-7 0-4.38-1.02-6.852-3.653-6.852" id="Fill-12"/><path id="Fill-13" d="M327.03 326.358l-1.644-.686v-1.45h8.366v1.417l-1.476.508 3.385 9.49h.204l3.264-9.136-1.864-.83v-1.45h6.565v1.417l-1.858.89-6.293 14.975h-2.703z"/><path d="M359.173 325.94c-.56-.12-1.162-.18-1.78-.18-2.966 0-5.393 2.618-5.393 7.06 0 4.057 1.598 7.086 5.59 7.086.34 0 .664 0 1.024-.052v-4.692l-2.116-.775v-1.423h6.667v7.533c-1.102.653-4.145 1.248-6.396 1.248-5.19 0-10.27-2.495-10.27-8.393 0-5.99 4.61-9.396 10.75-9.396 2.156 0 4.687.625 5.6.978v4.56h-2.466l-1.21-3.554z" id="Fill-14"/><path d="M377.54 341.745c-5.344 0-9.016-3.087-9.016-8.393 0-5.75 3.902-9.396 9.49-9.396 5.447 0 8.95 2.903 8.95 8.24 0 5.37-3.59 9.55-9.424 9.55m.254-15.84c-2.837 0-3.79 2.312-3.79 6.815 0 4.277.953 7.038 3.62 7.038 3.147 0 3.826-2.905 3.826-7 0-4.38-1.014-6.852-3.656-6.852" id="Fill-15"/><path d="M391.01 340.082l2.254-.796v-12.724l-2.253-.89v-1.45h9.672c3.734 0 6.362 1.718 6.362 4.983 0 2.423-1.264 3.856-3.372 4.564l3.528 5.543 2.13.77v1.423h-6.225l-3.692-7.173h-1.224v4.917l2.133.8v1.456h-9.312v-1.424zm7.18-14.057v6.35c2.223-.086 3.43-1.015 3.43-3.17 0-1.96-.92-3.083-3.262-3.18h-.17z" id="Fill-16"/><path d="M421.59 341.745c-5.32 0-8.998-3.087-8.998-8.393 0-5.75 3.917-9.396 9.484-9.396 5.467 0 8.96 2.903 8.96 8.24 0 5.37-3.592 9.55-9.445 9.55m.28-15.84c-2.85 0-3.808 2.312-3.808 6.815 0 4.277.958 7.038 3.628 7.038 3.142 0 3.827-2.905 3.827-7 0-4.38-1.01-6.852-3.646-6.852" id="Fill-17"/><path d="M435.08 340.082l2.255-.796v-12.724l-2.256-.89v-1.45h9.215c5.344.115 9.973 1.66 9.973 8.21 0 5.845-4.368 8.928-9.933 9.074h-9.256v-1.424zm7.168-13.96v13.394h.865c3.2 0 5.662-.82 5.662-6.637 0-4.46-1.323-6.758-5.52-6.758h-1.007z" id="Fill-18"/><path d="M206.518 374.643h-8.738l-.282-1.53c2.667-2.292 5.303-4.787 5.303-6.82 0-1.068-.424-2.028-1.49-2.028-1.04 0-1.618.942-1.98 2.255h-1.464v-2.362c1.098-.89 2.804-1.36 4.205-1.36 2.406 0 4.288 1.106 4.288 3.296 0 2.104-2.562 4.677-6.008 6.122l.04.182h4.41l1.026-1.65.927.238-.235 3.657z" id="Fill-19"/><path d="M218.67 372.158v2.485h-3.462v-2.485h-4.836l-.27-1.688 5.674-7.537h2.894v7.032h1.537l-.293 2.193h-1.244zm-3.462-2.193v-4.143l-3.065 4.143h3.065z" id="Fill-20"/><path d="M229.608 373.625l1.62-.575v-9.125l-1.62-.632v-1.05h6.942c2.89 0 4.866 1.244 4.866 3.976 0 2.323-1.88 3.912-5.71 3.912h-.948v2.89l1.54.582v1.04h-6.69v-1.02zm5.15-9.955v5.07h.314c1.792 0 2.468-.774 2.468-2.467 0-1.79-.82-2.56-2.51-2.603h-.272z" id="Fill-21"/><path id="Fill-22" d="M244.436 373.625l1.613-.575v-9.125l-1.614-.632v-1.05h6.684v1.024l-1.507.547v9.21l1.507.58v1.04h-6.684z"/><path d="M261.695 364.14c-.572-.343-1.248-.572-2.087-.572-1.073 0-1.956.53-1.956 1.532 0 1.057 1.3 1.395 2.774 1.866 1.817.58 3.857 1.36 3.857 4 0 2.764-2.286 3.852-5.412 3.852-1.385 0-2.88-.313-4.213-.856v-3.55h1.544l.56 2.164c.833.52 1.652.766 2.328.766 1.198 0 2.16-.446 2.16-1.57 0-1.087-1.8-1.447-3.448-2.108-1.52-.572-2.936-1.465-2.936-3.633 0-2.613 2.154-3.972 4.934-3.972 1.753 0 3.157.38 3.97.8v3.3h-1.538l-.535-2.018z" id="Fill-23"/><path d="M267.565 373.625l1.616-.575v-9.125l-1.615-.632v-1.05h6.672v1.024l-1.53.547v9.21l1.53.58v1.04h-6.672v-1.02zm5.37-4.636v-.497l4.098-4.75-1.473-.476v-1.024h5.147v1.107l-1.76.498-3.11 3.455 4.196 5.81 1.368.53v1h-4.61l-3.854-5.654z" id="Fill-24"/><path d="M285.56 370.452v-6.57l-1.46-.59v-1.048h6.548v1.023l-1.274.476v6.525c0 2.13.94 3.12 2.692 3.12 1.88 0 2.706-1.315 2.706-3.576v-5.762l-2.19-.758v-1.048h5.584v1.023l-1.546.7v5.913c0 3.674-2.785 4.938-5.508 4.938-3.962 0-5.553-1.657-5.553-4.366" id="Fill-25"/><path id="Fill-26" d="M301.373 373.625l1.54-.66v-8.975l-1.54-.697v-1.05h4.56l6.105 7.71h.13v-5.877l-2.007-.783v-1.05h5.297v1.024l-1.462.6v10.95h-2.277l-6.844-8.57h-.117v6.61l2.217.747v1.04h-5.6z"/><path d="M324.91 374.818c-3.83 0-6.468-2.213-6.468-6.024 0-4.124 2.804-6.736 6.8-6.736 3.928 0 6.42 2.082 6.42 5.91 0 3.85-2.575 6.85-6.752 6.85m.188-11.363c-2.03 0-2.718 1.66-2.718 4.9 0 3.056.69 5.034 2.59 5.034 2.273 0 2.74-2.088 2.74-5.013 0-3.153-.728-4.922-2.612-4.922" id="Fill-27"/><path id="Fill-28" d="M335.24 363.775l-1.163-.482v-1.05h5.995v1.023l-1.06.365 2.43 6.803h.146l2.34-6.55-1.343-.59v-1.05h4.708v1.023l-1.33.638-4.505 10.74h-1.94z"/><path d="M355.4 373.625l1.234-.34-.843-2.32h-3.893l-.816 2.21 1.653.43v1.038h-4.78v-1.018l1.215-.363 4.656-11.202h2.394l4.108 11.184 1.06.36v1.04H355.4v-1.02zm-3.054-3.83h3.024l-1.42-3.973h-.126l-1.478 3.973z" id="Fill-29"/><path d="M377.46 364.14c-.55-.343-1.246-.572-2.062-.572-1.097 0-1.972.53-1.972 1.532 0 1.057 1.307 1.395 2.77 1.866 1.832.58 3.875 1.36 3.875 4 .002 2.764-2.303 3.852-5.424 3.852-1.39 0-2.86-.313-4.21-.856v-3.55h1.55l.548 2.164c.84.52 1.663.766 2.325.766 1.21 0 2.172-.446 2.172-1.57 0-1.087-1.805-1.447-3.48-2.108-1.5-.572-2.9-1.465-2.9-3.633 0-2.613 2.152-3.972 4.93-3.972 1.736 0 3.147.38 3.968.8v3.3H378l-.54-2.018z" id="Fill-30"/><path id="Fill-31" d="M385.68 373.625l1.622-.575v-9.42h-1.638l-1.085 2.675h-1.465v-4.062h11.832v4.062h-1.418l-1.114-2.674h-1.575v9.393l1.515.58v1.04h-6.675z"/><path d="M398.247 373.625l1.616-.575v-9.125l-1.616-.632v-1.05h6.937c2.675 0 4.577 1.244 4.577 3.58 0 1.743-.925 2.764-2.43 3.27l2.53 3.978 1.528.555v1.018h-4.474l-2.647-5.147h-.882v3.527l1.54.58v1.04h-6.678v-1.018zm5.138-10.08v4.553c1.6-.072 2.475-.72 2.475-2.276 0-1.408-.66-2.218-2.337-2.278h-.138z" id="Fill-32"/><path d="M416.99 371.113c1.26 0 1.926.897 1.926 1.91 0 .872-.685 1.794-1.927 1.794-1.19 0-1.978-.877-1.978-1.795 0-.97.79-1.91 1.977-1.91" id="Fill-33"/><path id="Fill-34" d="M240.504 45.038h15.227v1.28h-15.226z"/><path id="Fill-35" d="M266.116 46.375v4.293h3.293l1.403-2.292 1.147.163-.496 3.354h-9.937v-.897l1.752-.514v-9.25l-1.753-.563v-.917h9.937v3.122h-1.377l-.707-1.914h-3.264v4.23l4.187-.19v1.568z"/><path d="M280.21 41.44c-.582-.355-1.27-.584-2.09-.584-1.24 0-2.102.62-2.102 1.686 0 1.08 1.237 1.466 2.664 1.964 1.8.623 3.79 1.393 3.79 3.893 0 2.616-2.28 3.666-5.064 3.666-1.3 0-2.67-.295-3.898-.79V47.96h1.228l.554 2.102c.838.5 1.684.75 2.436.75 1.274 0 2.234-.578 2.234-1.81 0-1.19-1.648-1.56-3.27-2.187-1.487-.564-2.957-1.42-2.957-3.476 0-2.415 2.024-3.778 4.514-3.778 1.56 0 2.925.36 3.727.777v3.118h-1.217l-.55-2.02z" id="Fill-36"/><path id="Fill-37" d="M285.96 50.997l1.757-.514V40.98h-1.997l-1.044 2.564h-1.13v-3.79h11.15v3.79h-1.115l-1.076-2.563h-1.965v9.458l1.73.54v.916h-6.31z"/><path d="M296.923 48.795c1.05 0 1.69.793 1.69 1.687 0 .792-.64 1.583-1.69 1.583-.995 0-1.68-.765-1.68-1.583 0-.872.685-1.687 1.68-1.687" id="Fill-38"/><path d="M313.017 51.894h-8.32l-.226-1.355c2.69-2.33 5.405-4.786 5.405-6.89 0-1.19-.663-2.077-1.75-2.077-1.015 0-1.73.738-2.17 1.97h-1.126V41.53c1.02-.822 2.514-1.237 3.82-1.237 2.246 0 4.085 1.06 4.085 3.264 0 2.274-2.754 4.753-5.95 6.337l.025.147h4.688l.98-1.603.717.193-.178 3.264z" id="Fill-39"/><path d="M319.363 52.534c-3.516 0-5.19-2.513-5.19-6.15 0-3.86 1.996-6.84 5.485-6.84 3.88 0 5.146 2.98 5.146 6.44 0 3.7-2.054 6.55-5.44 6.55m0-11.7c-1.487 0-2.05 2.42-2.05 5.453 0 3.03.615 4.974 2.312 4.974 1.635 0 1.946-2.197 1.946-5.156 0-2.85-.683-5.27-2.21-5.27" id="Fill-40"/><path id="Fill-41" d="M326.034 50.997l2.304-.624v-7.95h-2.558v-.894l4.06-1.15h1.265v10.01l2.248.587v.917h-7.32z"/><path id="Fill-42" d="M348.8 45.038h15.235v1.28H348.8z"/></g><text id="2" font-family="PTSerif-Bold, PT Serif" font-size="16.666" font-weight="bold" transform="translate(34 34)"><tspan x="300.938" y="17.999">2</tspan></text></g></g></g></svg>