<svg xmlns="http://www.w3.org/2000/svg" width="142.5mm" height="72.5mm" viewBox="0 0 14250 7250" shape-rendering="geometricPrecision" text-rendering="geometricPrecision" image-rendering="optimizeQuality" fill-rule="evenodd" clip-rule="evenodd"><defs><style><![CDATA[
    .fil0 {fill:black}
    .fil2 {fill:#CC2128}
    .fil1 {fill:white}
   ]]></style></defs><g id="Слой_x0020_1"><path class="fil0" d="M331 147h13696v6920H331z"/><g id="_1931045423504"><g><path class="fil1" d="M8986 4988v713c0 35 10 46 46 46 42-4 84 0 127 0v229h-600v-229h176v-910h-176v-230c14 0 28-3 42-3h494c28 0 46 10 60 35 152 258 300 512 452 769 7 14 14 25 28 35v-606h-173v-230h607v226h-187v1154h-148c-53 0-117 14-159-7-39-25-60-85-85-131-158-275-321-550-479-825-8-11-15-25-22-36 4-3 0-3-3 0zM2033 5973v-226h159v-914h-159v-229h1203v427h-258v-198h-427v297c0 7 22 17 36 17h307v229h-343v329c0 28 7 38 36 38h356c32 0 39-14 35-38v-166h244c7 0 17 14 17 21v413H2033zM6569 4833h-158v-229h1206v427h-261v-198h-420v318h339v229h-339v360h420v-201h261v434H6411v-230h130c21 0 32-3 32-28v-868c3 0 0-7-4-14zM11215 5973v-230h205v-910h-205v314h-229v-547h1238v547h-229v-314h-212v907h201v229c-257 4-511 4-769 4zM4820 4604v226h-177c78 229 152 455 233 691 78-236 155-458 233-688h-173v-229h603v229h-130c-25 0-39 7-46 32-120 356-243 713-363 1072-15 39-29 53-71 53-63-3-130-3-194 0-32 0-42-10-53-39-123-352-250-709-374-1061-14-43-32-60-77-53-32 3-67 0-106 0v-230c226-3 458-3 695-3z"/></g><g><path class="fil2" d="M3264 3052c-123 349-247 698-370 1051h-600c-78 0-155-4-233 0-32 0-42-14-53-39-201-550-402-1097-603-1647-49-134-99-268-145-402-10-29-24-43-56-43-46 4-95 0-145 0v-656h1425c0 11 4 25 4 35v575c0 32-7 46-42 43-53-4-103 0-166 0 109 395 215 786 321 1174h10c134-388 272-779 410-1178h-173c-25 0-32-7-32-31v-607c0-7 4-11 4-18h1192c0 14 3 28 3 42v568c0 36-7 50-45 46-50-3-103 0-159 0 141 399 275 787 413 1178h10c109-388 215-779 325-1178-53 0-103-3-152 0-35 4-49-7-49-46 3-190 0-377 0-568v-42h1111v656c-50 0-99 4-148 0-32 0-43 11-53 39-251 681-501 1358-752 2035-14 43-31 53-77 53-247-3-498-3-745 0-42 0-60-10-74-49-109-321-225-642-338-963-4-11-7-25-14-35 3 7 0 7-4 7zM10330 3154c134-392 271-780 409-1178h-201v-656h1192v656h-201c141 398 275 786 413 1178h11c109-392 215-780 324-1178h-197v-656h1104v656c-50 0-99 3-145 0-32 0-46 10-53 39-194 529-391 1058-585 1587-57 155-117 310-170 466-10 28-24 39-56 39h-776c-32 0-46-11-57-39-113-332-229-660-345-988-4-7-7-14-15-32-10 25-17 39-24 57l-339 963c-10 28-25 39-53 39h-786c-32 0-46-11-57-39-247-678-497-1358-744-2036-14-42-36-56-78-53-35 4-70 4-106 0-10 0-24-14-24-21v-624s0-4 3-7h1418v656h-201c110 398 215 787 321 1178 11-7 14-7 18-7zM8647 2396c-116-519-430-882-942-1052-303-102-617-105-931-56-328 53-603 201-829 441-293 317-409 698-367 1129 46 458 272 801 660 1040 271 166 571 223 885 226 74-3 148-7 222-14 202-21 396-67 572-162 578-307 875-917 730-1552zm-1213 825c-32 113-92 205-208 240-173 53-336-25-392-208-32-106-49-219-60-332-18-208-14-412 14-621 11-74 28-151 60-222 57-123 159-180 296-173 127 7 212 74 261 187 46 103 60 215 67 325 8 88 0 180 0 271 11 184 8 360-38 533z"/></g></g></g></svg>