<svg id="Layer_1" xmlns="http://www.w3.org/2000/svg" viewBox="0 0 500 250"><style>.st0{fill:none;} .st1{fill:#FFC107;} .st2{fill:#0F9D58;} .st3{opacity:0.2;fill:#BF360C;enable-background:new ;} .st4{opacity:0.2;fill:#263238;enable-background:new ;} .st5{opacity:0.2;fill:#FFFFFF;enable-background:new ;} .st6{fill:url(#XMLID_2_);} .st7{fill:url(#XMLID_3_);} .st8{fill:#4285F4;} .st9{fill:#DB4437;} .st10{opacity:0.2;fill:#1A237E;enable-background:new ;} .st11{opacity:0.2;fill:#3E2723;enable-background:new ;} .st12{fill:url(#XMLID_4_);} .st13{display:none;}</style><g><g><g id="XMLID_17_"><g id="XMLID_18_"><path class="st0" d="M133.2 139.6L98.9 80.3H53l37.9 65.5L53 211.3h45.9l34.3-59.4c2.2-3.8 2.2-8.5 0-12.3z"/><path id="XMLID_26_" class="st1" d="M113.5 184.9l-10.9-18.8-26.1 45.2h22.4l14.9-25.8z"/><path class="st0" d="M133.2 139.6L98.9 80.3H53l37.9 65.5L53 211.3h45.9l34.3-59.4c2.2-3.8 2.2-8.5 0-12.3z"/><path class="st2" d="M90.8 145.8l11.8 20.3-26.1 45.2H53z"/><path class="st0" d="M133.2 139.6L98.9 80.3H53l37.9 65.5L53 211.3h45.9l34.3-59.4c2.2-3.8 2.2-8.5 0-12.3z"/><path class="st3" d="M98.9 210.3H77.1l-.6 1h22.4l14.9-25.8-.3-.6z"/><path class="st0" d="M133.2 139.6L98.9 80.3H53l37.9 65.5L53 211.3h45.9l34.3-59.4c2.2-3.8 2.2-8.5 0-12.3z"/><path class="st4" d="M53.5 210.3l-.5 1h23.5l.6-1z"/><path class="st0" d="M133.2 139.6L98.9 80.3H53l37.9 65.5L53 211.3h45.9l34.3-59.4c2.2-3.8 2.2-8.5 0-12.3z"/><path class="st5" d="M53 211.3h.5l37.6-65-.3-.5z"/><path class="st0" d="M133.2 139.6L98.9 80.3H53l37.9 65.5L53 211.3h45.9l34.3-59.4c2.2-3.8 2.2-8.5 0-12.3z"/><radialGradient id="XMLID_2_" cx="113.645" cy="1060.008" r="45.309" gradientTransform="translate(0 -874.97)" gradientUnits="userSpaceOnUse"><stop offset="0" stop-color="#BF360C" stop-opacity=".2"/><stop offset="1" stop-color="#BF360C" stop-opacity=".02"/></radialGradient><path id="XMLID_25_" class="st6" d="M113.8 185.5l-11.2-19.4-2.7 4.8z"/><path class="st0" d="M133.2 139.6L98.9 80.3H53l37.9 65.5L53 211.3h45.9l34.3-59.4c2.2-3.8 2.2-8.5 0-12.3z"/><radialGradient id="XMLID_3_" cx="113.517" cy="1060.294" r="45.677" gradientTransform="translate(0 -874.97)" gradientUnits="userSpaceOnUse"><stop offset="0" stop-color="#263238" stop-opacity=".2"/><stop offset="1" stop-color="#263238" stop-opacity=".02"/></radialGradient><path id="XMLID_24_" class="st7" d="M99.9 170.9l2.7-4.8-11.8-20.3-5.6 9.7z"/><path d="M141.8 135.6c-1.1 1-2 2.2-2.4 3.6.5.5.9.8 1.2 1.2.8.9 1.4 1.9 2.5 2.5 1 .6 1.4 1.8 2.5 2.6 1.8 1.3 3.5 3 4.9 4.8 2.9 3.9 3.8 8.5 4.7 13.1.4 2 .8 3.9 1.7 5.9 1.3 2.8 2.4 5.7 2.3 8.9 0 2-.3 2.6-.2 4.5.1 2 .6 4.1.7 6.1 0 1.2-1.8 3.1-2.4 4-2.1-.8-2.4-2.9-3.6-4.7v-5.8c-.4-.1-.7-.2-1.2-.3v-5.5c0-.9-.3-1.8-.6-2.7-1-4.1-3-7.7-4.6-11.6-2.1-5.1-6-8.4-10.8-10.8-2.6-1.3-3.7-1-5.9.9"/><path d="M122 165.1c-1.9 1.7-2.4 4.1-3.1 6.3-1.5 4.8-3.4 9.3-5.7 13.7-1 1.9-1.8 3.9-1.6 6.2.1 1.9 0 3.7 0 5.6 0 .7.2 1.4.4 2.1 1 3.2 2.1 6.3 3.8 9.6-1.9-.1-3.4.4-4.9-.6-1.3-.8-2.3-1.8-2.9-3.2-.5-1.3-.9-2.7-1.4-4h-2.2c-.4-2.2-.1-4 .5-5.8.8-2.3 1.2-4.7 1.9-7.1 1-3 1.7-6.2 2-9.3.4-3.6 1.7-7 2.4-10.5.5-2.6 1.2-5.2 1.6-7.9.4-2-.5-3.7-2-5.1-.6-.5-1-1.1-1.5-1.7-1.4-.1-2.4-.9-3.6-1.1-3.9-.8-7.8-1.4-11.7-2-1.7-.2-3.3-.2-5-.6-3.5-.7-7.2-.6-10.9-.9-.5 1.6-2.1 1.5-2.9 2.8-2.2 3.9-4.4 7.8-6.5 11.8-2.6 4.9-4 10.2-3.9 15.8v5.6c0 .6-.1 1.3.1 1.9.3 1.2.9 2.3 1.2 3.4.3 1.3.4 2.7.7 4 .2 1.2 1 2.2 1.4 3.4.8 2.5 1.9 4.9 3.3 7.2 1.4 2.2 3 4.2 4.4 6.6-2 0-3.7-.1-5.5 0-1.9.1-3.2-1-4.3-2.3-.3-.3-.1-1-.2-1.5-.6-.1-1.1-.1-1.7-.2-.3-.4-.6-.8-.8-1.3-.7-1.4-1.5-2.7-1.9-4.1-.5-2.1-1-4.2-1.3-6.3-.5-3.5-2-6.6-3.1-9.9-.8-2.4-2.4-4.6-2.3-7.3-1.4-.8.3-3.1-1.5-3.7-4.1 2.8-5.6 7.2-7.6 11.3-.1 3.2-2.1 6.1-2 9.3-1.7 4-.1 7.1 2.7 9.9.7.7.9 1.7 1.5 2.8h-7.2c-1.3-1.1-1.3-2.7-1.7-4.2-.4-1.4-1.6-2.6-2.4-3.7-.3-2.2.7-4 1-5.9.4-2 1.7-3.5 2.2-5.3.9-3.5 2-6.8 2.8-10.4.6-3 1.2-6 2.1-9.1 2.2-2 4.6-4 6.9-6.1 2.7-2.5 3.5-5.8 4-9.2.3-2.3 0-4.6.1-6.9 0-.9-.2-1.6-1.1-2-1.8 2-3.7 3.6-6.8 3.9v-1.7c-.1-3.3 1.1-6.6.7-9.9-.2-1.5-.1-3.1 0-4.6.1-2 .7-3.8 1.1-5.7.6-2.7 2.1-4.9 3.5-7.1 2.4-3.8 5.6-7.1 9.4-9.5 3.7-2.4 8.1-3.1 12.3-3.4 3.4-.3 6.8-.5 10.3.4 1.3.4 2.9.4 4.3.8s2.8.8 4.1 1.1c2.6.7 5.2 1.6 7.9 1.4 5.8-.3 11.7.6 17.5-.6 2.1-.4 4.4-.1 6.2-1 .3-.9.5-1.7.7-2.5.3-1.2.5-2.4.8-3.6.5-2 .8-4 1.5-5.9 1.1-3.2 1.9-6.4 1.7-9.7-1.6-1.2-3.5-.9-5.2-1-2.3-.1-4.5-.8-6.2-2.5-1-1-2.2-1.9-3-3-1.2-1.6-2.6-3.3-1.8-5.6h6.7c.1 0 .2-.1.4-.4-4.8-2-8.2-5.8-10.7-10-2.6-4.4-4.4-9.1-3.2-14.1.1-.4.2-.8.4-1.3.5.9.8 1.4 1 2 .2.4.2.9.3 1.4.5-1.8.2-3.6 1-5.4.8-1.7 1.4-3.1 2.9-4.4-.7 3.5-1.2 6.7-.6 10 .9-.3 1.6-.5 2.6-.8-.8 2.1-1.5 3.8-2.1 5.3.8 2.1 1.5 4.1 2.3 6.1 4-2 7.3-4.5 10.1-7.6.4.3.6.4.8.6-.1.3-.2.6-.3.8-1.7 2.6-4.1 4.7-6.3 6.9-1 1-1.9 2-2.1 3.3 1.3 3 1.7 3 4.8 4.3 2 .8 4 1.4 6 2.3 1.2.6 2.8 1.6 4.2.8.3-2.4.6-4.6.9-6.7.6-.6 1.1-1.2 1.6-1.7 1 2 1.1 4.1 1 6.2 0 .8-.1 1.5 0 2.3.2 1.8 2.7 3.8 4.2 3.3s2.9-1.4 4.3-2v-8.6c-.3-.6-.5-1.1-.9-1.7h1.9c1.6 2.6 2.4 5.4 2.4 8.5 4.1-2 5.9-7.9 5-11-.7-2.4-2-4.7-2.9-7-.1-.3-.2-.7-.3-1.3 2.6.4 2.6 3.2 4.5 4 .6-3.7.3-7.3-.7-10.8-.9-3.1-2.2-6.2-3-9.7 2.1.7 3.1 2.3 3.8 4 .4 1.1.4 2.4.7 3.6.2.6.6 1.1.9 1.6.2-.1.3-.1.5-.2v-4.2c2.3 2.9 1.9 5.8 1.9 8.7-1.3 1.4-.4 3.1-.6 4.7-.3 1.5-.5 3.1-.6 4.7-.1 1.6.2 3.1-1 4.7h1.9c1-.9 2-1.9 3-2.8.1-3.8.1-7.5-1.9-10.8-.2-.3.1-.9.2-1.6 1.7.7 2 2 2.4 3.3.3.9.3 2 1.6 2.3 1.6-3.9.7-8 1.2-12.1.6.3 1 .4 1.1.5.5 1.8 1.1 3.5 1.3 5.4.2 2.3-.2 4.6-.5 7-.6 4.1-2 7.7-5.1 10.3-1.1 1-2.6 1.8-3.7 2.7-3.1 2.6-6.7 4.6-8.9 8.2l.9.9c1.3-.7 2.8-1.1 3.8-2 1.5-1.4 3.2-2.2 4.9-3.2h7.5c.1 0 .2.1.4.2.2 1-.1 1.9-.4 2.9-.8 2-2.1 3.5-3.7 4.7-1.1.8-2.6 1.1-4 1.4-2 .4-4.1.6-6.2.9.2.2.4.4.4.5.1 2.7.2 5.4.4 8 1.3 1.6 2.6 3.1 3.8 4.7v3.8c-.8.8-1.6 1.6-2.2 2.3-1.2.3-2.2.6-3.2.8-1 .1-2.1 0-3.4 0 .3 1.1.5 1.9.7 2.7.5 2.1 1.2 4.1 1.5 6.3.5 3.2-.3 6.4-.6 9.6-1.4 1-.5 2.6-1 3.9-.8 2.2-1.5 4.4-2.3 6.6-1 2.6-2.2 4.9-4.1 6.8-1.3 1.3-2.8 2.3-4.1 3.5-1.4 1.3-2.6 2.6-4 3.9-1.1 1-2 2.2-2.4 3.6.5.5.9.8 1.2 1.2m1.1-71.2l1-1c-.9-.9-1.9-1.8-2.8-2.7-1.6-.4-3.3-.9-5-1.4.9 2.2.9 2.2 6.8 5.1z"/><path class="st0" d="M133.2 139.6L98.9 80.3H53l37.9 65.5L53 211.3h45.9l34.3-59.4c2.2-3.8 2.2-8.5 0-12.3z"/><g id="XMLID_21_"><g id="XMLID_22_"><path id="XMLID_23_" class="st8" d="M76.5 80.3H53l60.8 105.2 11.8-20.4z"/></g></g><path class="st0" d="M133.2 139.6L98.9 80.3H53l37.9 65.5L53 211.3h45.9l34.3-59.4c2.2-3.8 2.2-8.5 0-12.3z"/><path class="st9" d="M133.2 151.9c2.2-3.8 2.2-8.5 0-12.3L98.9 80.3H76.5l49.1 84.8 7.6-13.2z"/><path class="st0" d="M133.2 139.6L98.9 80.3H53l37.9 65.5L53 211.3h45.9l34.3-59.4c2.2-3.8 2.2-8.5 0-12.3z"/><path class="st10" d="M125.6 165.1l-.3-.5-11.5 19.8L53.5 80.3H53l60.8 105.2z"/><path class="st0" d="M133.2 139.6L98.9 80.3H53l37.9 65.5L53 211.3h45.9l34.3-59.4c2.2-3.8 2.2-8.5 0-12.3z"/><path class="st5" d="M98.9 81.3l34.3 59.4c1 1.8 1.5 3.7 1.6 5.6.1-2.3-.4-4.6-1.6-6.7L98.9 80.3H53l.6 1h45.3z"/><path class="st0" d="M133.2 139.6L98.9 80.3H53l37.9 65.5L53 211.3h45.9l34.3-59.4c2.2-3.8 2.2-8.5 0-12.3z"/><path id="XMLID_20_" class="st11" d="M125.6 165.1l7.6-13.2c1.2-2 1.7-4.4 1.6-6.7-.1 1.9-.6 3.9-1.6 5.6l-7.9 13.7.3.6z"/><path class="st0" d="M133.2 139.6L98.9 80.3H53l37.9 65.5L53 211.3h45.9l34.3-59.4c2.2-3.8 2.2-8.5 0-12.3z"/><radialGradient id="XMLID_4_" cx="51.944" cy="956.238" r="137.525" gradientTransform="translate(0 -874.97)" gradientUnits="userSpaceOnUse"><stop offset="0" stop-color="#FFF" stop-opacity=".1"/><stop offset="1" stop-color="#FFF" stop-opacity="0"/></radialGradient><path id="XMLID_19_" class="st12" d="M133.2 139.6L98.9 80.3H53l37.9 65.5L53 211.3h45.9l34.3-59.4c2.2-3.8 2.2-8.5 0-12.3z"/></g></g></g><g id="Layer_4_2_"><g id="XMLID_12_"><path id="XMLID_16_" d="M286.2 82.6h28.1c28.6 0 46.6 19 46.6 45.6 0 26.8-18 45.6-46.6 45.6h-28.1V82.6zm28.6 77.4c19.9 0 32.3-11.1 32.3-31.8 0-20.6-12.3-31.8-32.3-31.8H300V160h14.8z"/><path id="XMLID_15_" class="st13" d="M180.6 80.2h282.2v99.6H180.6z"/><path id="XMLID_14_" d="M274.7 124.1h-43.8v13.6h30.9c-1 6.9-3.4 12.3-7 15.9-4.6 4.6-11.7 9.6-24.3 9.6-19.3 0-34.4-15.6-34.4-34.9s15.1-34.9 34.4-34.9c10.4 0 18 4.1 23.7 9.4l9.3-9.3c-7.9-7.5-18.3-13.2-32.9-13.2-26.5 0-48.7 21.6-48.7 48 0 26.5 22.3 48 48.7 48 14.3 0 25.1-4.7 33.5-13.5 8.7-8.7 11.4-20.9 11.4-30.7-.1-3.1-.3-5.7-.8-8z"/><path id="XMLID_13_" d="M462.8 124.1H419v13.6h30.9c-1 6.9-3.4 12.3-7 15.9-4.6 4.6-11.7 9.6-24.3 9.6-19.3 0-34.4-15.6-34.4-34.9s15.1-34.9 34.4-34.9c10.4 0 18 4.1 23.7 9.4l9.3-9.3c-7.9-7.5-18.3-13.2-32.9-13.2-26.5 0-48.7 21.6-48.7 48 0 26.5 22.3 48 48.7 48 14.3 0 25.1-4.7 33.5-13.5 8.7-8.7 11.4-20.9 11.4-30.7-.1-3.1-.3-5.7-.8-8z"/></g></g><g><path d="M197.3 210.9l-11.1-16.1c-.1-.2-.3-.4-.4-.6l-.3-.6h-.1V211h-1.9v-20.2h2.1l11 15.9c.2.3.3.5.5.7.1.2.3.4.4.6h.1c0-.3-.1-.7-.1-1v-16.2h1.9v20.1h-2.1zM207.3 210.9h-1.9v-20.1h1.9v20.1zM214.3 209.2h11.8v1.7h-14.6v-.5l11.9-17.8h-11v-1.8h13.8v.5l-11.9 17.9zM243.5 210.9v-9.4h-11v9.4h-1.9v-20.1h1.9v9h11v-9h1.9v20.1h-1.9zM265.3 210.9l-11.1-16.1c-.1-.2-.3-.4-.4-.6l-.3-.6h-.1V211h-1.9v-20.2h2.1l11 15.9c.2.3.3.5.5.7.1.2.3.4.4.6h.1c0-.3-.1-.7-.1-1v-16.2h1.9v20.1h-2.1zM279.6 203.3v7.5h-1.9v-7.5l-6.3-12.6h2.1l4.6 9.4c.1.1.1.3.2.5s.2.5.3.9c.1-.2.1-.4.2-.6.1-.2.2-.5.4-.8l4.8-9.4h2l-6.4 12.6zM313.5 210.9l-11.1-16.1c-.1-.2-.3-.4-.4-.6l-.3-.6h-.1V211h-1.9v-20.2h2.1l11 15.9c.2.3.3.5.5.7.1.2.3.4.4.6h.1c0-.3-.1-.7-.1-1v-16.2h1.9v20.1h-2.1zM329.9 211.2c-1.4 0-2.8-.3-3.9-.8s-2.1-1.2-2.9-2.2-1.4-2-1.9-3.2c-.4-1.2-.7-2.6-.7-4 0-1.6.2-3 .7-4.3.4-1.3 1.1-2.4 1.9-3.3s1.8-1.7 3.1-2.2c1.2-.5 2.6-.8 4.1-.8 1.4 0 2.7.3 3.8.8 1.1.5 2.1 1.2 2.9 2.1s1.4 2 1.8 3.2.6 2.6.6 4c0 1.5-.2 2.9-.6 4.2s-1 2.4-1.8 3.4-1.8 1.7-3 2.2c-1.2.6-2.5.9-4.1.9zm.2-19.1c-1.2 0-2.3.2-3.2.7-.9.5-1.7 1.1-2.4 1.9-.6.8-1.1 1.7-1.5 2.8-.3 1.1-.5 2.2-.5 3.4 0 1.1.1 2.2.4 3.3.3 1 .8 2 1.4 2.8s1.4 1.4 2.3 1.9 2 .7 3.3.7 2.4-.2 3.3-.7c.9-.4 1.7-1 2.4-1.8s1.1-1.7 1.4-2.8.5-2.2.5-3.5c0-1.2-.1-2.3-.4-3.3-.3-1.1-.7-2-1.3-2.8s-1.4-1.4-2.3-1.9c-1-.4-2.1-.7-3.4-.7zM350.8 210.9H349l-7.3-20.1h2.1l5.7 16.1.3.9c.1.3.1.6.2.9h.1c0-.3.1-.5.2-.9.1-.3.2-.7.3-1l5.9-16h2l-7.7 20.1zM376.5 209.5c-2.1 1.2-4.2 1.7-6.6 1.7-1.5 0-2.8-.3-3.9-.8-1.2-.5-2.1-1.2-3-2.1s-1.4-2-1.9-3.2c-.4-1.2-.7-2.6-.7-4.1 0-1 .1-1.9.3-2.8.2-.9.5-1.8.9-2.5s.9-1.5 1.5-2.2c.6-.6 1.3-1.2 2-1.7.8-.5 1.6-.8 2.5-1.1s1.9-.4 3-.4c2 0 3.8.4 5.3 1.1v2.1c-1.7-1-3.6-1.4-5.5-1.4-1.2 0-2.3.2-3.3.7-1 .4-1.8 1.1-2.5 1.8s-1.2 1.7-1.6 2.8-.6 2.2-.6 3.5c0 1.2.2 2.4.5 3.4.3 1.1.8 2 1.5 2.7s1.5 1.4 2.4 1.8c1 .4 2.1.6 3.3.6 1.7 0 3.2-.4 4.4-1.1v-6.1h-4.6v-1.7h6.4v9h.2zM390.2 211.2c-1.4 0-2.8-.3-3.9-.8s-2.1-1.2-2.9-2.2-1.4-2-1.9-3.2c-.4-1.2-.7-2.6-.7-4 0-1.6.2-3 .7-4.3.4-1.3 1.1-2.4 1.9-3.3s1.8-1.7 3.1-2.2c1.2-.5 2.6-.8 4.1-.8 1.4 0 2.7.3 3.8.8 1.1.5 2.1 1.2 2.9 2.1s1.4 2 1.8 3.2.6 2.6.6 4c0 1.5-.2 2.9-.6 4.2s-1 2.4-1.8 3.4-1.8 1.7-3 2.2c-1.2.6-2.5.9-4.1.9zm.2-19.1c-1.2 0-2.3.2-3.2.7-.9.5-1.7 1.1-2.4 1.9-.6.8-1.1 1.7-1.5 2.8-.3 1.1-.5 2.2-.5 3.4 0 1.1.1 2.2.4 3.3.3 1 .8 2 1.4 2.8s1.4 1.4 2.3 1.9 2 .7 3.3.7 2.4-.2 3.3-.7c.9-.4 1.7-1 2.4-1.8s1.1-1.7 1.4-2.8.5-2.2.5-3.5c0-1.2-.1-2.3-.4-3.3-.3-1.1-.7-2-1.3-2.8s-1.4-1.4-2.3-1.9c-1-.4-2.1-.7-3.4-.7zM415.8 210.9l-3-5.8c-.3-.6-.6-1-.9-1.4s-.6-.7-.9-.9-.6-.4-1-.5-.7-.1-1.1-.1h-2.2v8.7h-1.8v-20.1h5.8c.8 0 1.5.1 2.2.3s1.3.6 1.9 1 1 1 1.3 1.7.5 1.4.5 2.3c0 .7-.1 1.4-.3 2-.2.6-.5 1.1-.9 1.6s-.9.9-1.4 1.2c-.6.3-1.2.6-1.9.7v.1c.3.1.5.3.7.4.2.2.4.4.7.6.2.3.4.5.6.9.2.3.4.7.6 1.1l3.4 6.2h-2.3zm-9.1-18.4v7.9h3.3c.7 0 1.3-.1 1.8-.3.6-.2 1-.5 1.4-.8s.7-.8.9-1.3c.2-.5.3-1.1.3-1.7 0-1.2-.4-2.1-1.1-2.8-.8-.7-1.8-1-3.3-1h-3.3zM430.3 211.2c-1.4 0-2.8-.3-3.9-.8s-2.1-1.2-2.9-2.2-1.4-2-1.9-3.2c-.4-1.2-.7-2.6-.7-4 0-1.6.2-3 .7-4.3.4-1.3 1.1-2.4 1.9-3.3s1.8-1.7 3.1-2.2c1.2-.5 2.6-.8 4.1-.8 1.4 0 2.7.3 3.8.8 1.1.5 2.1 1.2 2.9 2.1s1.4 2 1.8 3.2.6 2.6.6 4c0 1.5-.2 2.9-.6 4.2s-1 2.4-1.8 3.4-1.8 1.7-3 2.2c-1.2.6-2.6.9-4.1.9zm.1-19.1c-1.2 0-2.3.2-3.2.7-.9.5-1.7 1.1-2.4 1.9-.6.8-1.1 1.7-1.5 2.8-.3 1.1-.5 2.2-.5 3.4 0 1.1.1 2.2.4 3.3.3 1 .8 2 1.4 2.8s1.4 1.4 2.3 1.9 2 .7 3.3.7 2.4-.2 3.3-.7c.9-.4 1.7-1 2.4-1.8s1.1-1.7 1.4-2.8.5-2.2.5-3.5c0-1.2-.1-2.3-.4-3.3-.3-1.1-.7-2-1.3-2.8s-1.4-1.4-2.3-1.9c-1-.4-2.1-.7-3.4-.7zM444.9 210.9v-20.1h5.3c3.4 0 6 .8 7.8 2.5 1.8 1.6 2.6 4.1 2.6 7.3 0 1.5-.2 3-.7 4.2-.5 1.3-1.2 2.4-2.1 3.3-.9.9-2 1.6-3.4 2.1-1.3.5-2.8.7-4.5.7h-5zm1.9-18.4v16.7h3.1c1.4 0 2.6-.2 3.7-.6s2-.9 2.8-1.6c.8-.7 1.3-1.6 1.7-2.7s.6-2.3.6-3.7c0-5.4-2.9-8.1-8.6-8.1h-3.3z"/></g></g></svg>