<svg id="Layer_1" xmlns="http://www.w3.org/2000/svg" width="185" height="188" viewBox="2.7 88.3 605.7 615.3"><g><g><g fill="#4E4E4E"><path d="M383.4 144.6c0 8.9-2.3 15.5-7.3 20.5-5 4.6-11.6 7.3-20.5 7.3h-16.9v-52.9h18.2c8.6 0 14.9 2.3 19.5 6.6 4.7 3.9 7 10.2 7 18.5zm-14.9.3c0-5-1-8.6-3-10.9-2-2.3-5-3.6-8.6-3.6h-4.3v29.8h3.3c4.3 0 7.6-1.3 9.6-3.6 2-2.4 3-6.4 3-11.7zM407.2 172.7c-6.9 0-11.9-1.7-15.9-5.3-3.6-3.6-5.6-8.9-5.6-15.5 0-6.9 1.7-12.2 5.3-15.9 3.6-3.6 8.6-5.6 14.9-5.6 6.3 0 10.9 1.7 14.2 5 3.3 3.3 5 7.9 5 13.9v6.3H400c0 2.3 1 4 2.6 5.3s3.6 2 6.3 2c2.3 0 4.6-.3 6.9-.7 2-.3 4.3-1.3 6.6-2.3v10.3c-2.3 1-4.6 2-6.9 2.3-2 .2-5 .2-8.3.2zm-.6-32.7c-1.7 0-3 .7-4.3 1.7-1 1-1.7 2.6-2 5h12.2c0-2-.7-3.6-1.7-4.6-.9-1.2-2.6-2.1-4.2-2.1zM439.6 172l-15.5-41h14.6l6.9 24.1v.7s0 .7.3 1c0 .3 0 .7.3 1.3v1.3h.3c0-1.3.3-2.6.7-4l7.3-24.5h14.6l-15.5 41h-14v.1zM484.3 172h-13.9v-52.9h31.1v11.6h-17.2V141h15.9v11.6h-15.9V172zM524.3 172.7c-6.9 0-11.9-1.7-15.9-5.3-4-3.6-5.6-8.9-5.6-15.5 0-6.9 1.7-12.2 5.3-15.9 3.6-3.6 8.6-5.6 14.9-5.6s10.9 1.7 14.2 5c3.3 3.3 5 7.9 5 13.9v6.3h-25.1c0 2.3 1 4 2.6 5.3s3.6 2 6.3 2c2.3 0 4.6-.3 6.9-.7 2.3-.3 4.3-1.3 6.6-2.3v10.3c-2.3 1-4.6 2-6.9 2.3-2 .2-5 .2-8.3.2zm-.6-32.7c-1.7 0-3 .7-4.3 1.7-1 1-1.7 2.6-2 5h12.2c0-2-.7-3.6-1.7-4.6-.9-1.5-2.6-2.1-4.2-2.1zM577.3 159.5c0 4.3-1.3 7.6-4.6 9.9-3 2.3-7.3 3.3-12.9 3.3-3 0-5.6 0-7.9-.3s-4.6-1-6.9-1.7v-11.2c2.3 1 4.6 1.7 7.3 2.3 2.6.7 5 1 6.9 1 3 0 4.6-.7 4.6-2 0-.7-.3-1.3-1.3-2s-3.3-1.7-7.3-3.3c-3.6-1.7-6.3-3.3-7.9-5.3-1.3-2-2.3-4.6-2.3-7.6 0-4 1.3-6.9 4.3-8.9s6.9-3.3 12.6-3.3c2.6 0 5.3.3 7.6 1s5 1.3 7.3 2.6l-4 9.3c-2-1-4-1.7-6-2.3-2-.7-3.6-1-5-1-2.3 0-3.3.7-3.3 1.7 0 .7.3 1.3 1.3 1.7 1 .3 3 1.7 6.9 3 3 1.3 5 2.3 6.3 3.6s2.3 2.3 3 4c.9 1.5 1.3 3.2 1.3 5.5zM600.8 161.8c2 0 4.3-.3 6.9-1.3v10.3c-2 .7-3.6 1.3-5.3 1.7s-3.6.7-6 .7c-4.6 0-8.3-1.3-10.3-3.6s-3-6-3-10.9v-16.9h-5V136l6.3-4.3 3.6-8.6h9.3v8.3h9.9V142h-9.9v15.9c-.2 2.6.8 3.9 3.5 3.9z"/></g><g><path fill="#4E4E4E" d="M199.5 243.5h-34.1v-6.3l12.9-12.9c4-4 6.3-6.6 7.6-8.3 1.3-1.7 2.3-3.3 2.6-4.6.3-1.3 1-3 1-4.6 0-2.3-.7-4-2-5.3-1.3-1.3-3.3-2-5.6-2-2 0-3.6.3-5.6 1-1.7.7-4 2-6.3 4l-4.3-5.3c2.6-2.3 5.6-4 8.3-5 2.6-1 5.3-1.3 8.3-1.3 4.6 0 8.3 1.3 11.2 3.6 3 2.3 4.3 5.6 4.3 9.9 0 2.3-.3 4.3-1.3 6.3-.7 2-2 4-3.6 6.3s-4.3 5-8.3 8.6l-8.6 8.3v.3h23.8l-.3 7.3zM235.2 218.4c0 8.6-1.3 15.2-4.3 19.5-2.6 4.3-6.9 6.3-12.9 6.3-5.6 0-9.9-2.3-12.6-6.6-2.6-4.3-4.3-10.6-4.3-19.2 0-8.9 1.3-15.2 4.3-19.5 2.6-4.3 6.9-6.3 12.9-6.3 5.6 0 9.9 2.3 12.6 6.6 3 4.3 4.3 10.9 4.3 19.2zm-25.8 0c0 6.9.7 11.6 2 14.6s3.6 4.3 6.6 4.3 5.3-1.3 6.6-4.3c1.3-3 2-7.9 2-14.6 0-6.6-.7-11.6-2-14.6s-3.6-4.6-6.6-4.6-5.3 1.3-6.6 4.3c-1.3 3.3-2 8.2-2 14.9zM260.7 243.5h-7.9v-32.4c0-4 0-6.9.3-9.3-.7.7-1.3 1-2 1.7s-3.3 2.6-7.6 6.3l-4-5 14.6-11.6h6.6v50.3zM355 229.9c0 4.3-1.7 7.9-5 10.6-3.3 2.6-7.6 3.6-13.2 3.6s-10.3-1-13.9-2.6v-7.6c2.3 1 4.6 2 7.3 2.6 2.6.7 5 1 7.3 1 3.3 0 5.6-.7 7.3-2 1.7-1.3 2.3-3 2.3-5s-.7-3.3-2-4.6c-1.3-1.3-4.3-3-8.6-4.6-4.6-2-7.9-4-9.6-6.3-2-2.3-2.6-5.3-2.6-8.6 0-4.3 1.3-7.6 4.3-9.9s6.9-3.6 11.9-3.6c4.6 0 9.6 1 14.2 3.3l-2.6 6.6c-4.3-2-8.3-2.6-11.9-2.6-2.6 0-4.6.7-6 1.7s-2 2.6-2 4.6c0 1.3.3 2.3.7 3.3.3 1 1.3 1.7 2.6 2.6 1.3.7 3.6 2 6.6 3.3 3.6 1.7 6.3 3 7.9 4.3s3 3 3.6 4.6c1 1 1.4 3 1.4 5.3zM376.1 244.2c-6 0-10.6-1.7-13.9-5.3-3.3-3.3-5-8.3-5-14.2 0-6.3 1.7-10.9 4.6-14.6 3-3.6 7.3-5.3 12.6-5.3 5 0 8.9 1.7 11.9 4.6 3 3 4.3 7.3 4.3 12.6v4.3h-25.1c0 3.6 1 6.6 3 8.6s4.6 3 7.9 3c2.3 0 4.3-.3 6.3-.7s4-1 6.3-2v6.6c-2 1-4 1.7-6 2s-4.2.4-6.9.4zm-1.3-33.1c-2.6 0-4.6.7-6.3 2.3s-2.3 4-2.6 6.9h17.2c0-3-.7-5.6-2.3-6.9-1.7-1.3-3.3-2.3-6-2.3zM419.5 243.5l-1.7-5.3h-.3c-2 2.3-3.6 4-5.6 4.6-2 1-4.3 1.3-7.3 1.3-3.6 0-6.6-1-8.6-3s-3-5-3-8.6c0-4 1.3-6.9 4.3-8.9s7.3-3 13.2-3.3l6.6-.3v-2c0-2.3-.7-4.3-1.7-5.3-1-1.3-3-1.7-5.3-1.7-2 0-3.6.3-5.6 1-1.7.7-3.6 1.3-5.3 2l-2.6-5.6c2-1 4.3-2 6.6-2.3 2.3-.7 4.6-1 6.9-1 5 0 8.6 1 10.9 3.3 2.3 2 3.6 5.3 3.6 9.9v25.5c.8-.3-5.1-.3-5.1-.3zm-11.9-5.6c3 0 5.3-.7 6.9-2.3s2.6-4 2.6-6.9v-3.3l-5 .3c-3.6 0-6.6.7-8.3 2-1.7 1.3-2.6 3-2.6 5.3 0 1.7.7 3 1.7 4 1 .5 2.7.9 4.7.9zM457.8 232.6c0 3.6-1.3 6.6-4 8.6-2.6 2-6.6 3-11.6 3s-8.9-.7-12.2-2.3V235c4.3 2 8.6 3 12.6 3 5 0 7.3-1.7 7.3-4.6 0-1-.3-1.7-.7-2.3-.7-.7-1.3-1.3-2.6-2s-3-1.3-5.3-2.3c-4.3-1.7-7.3-3.3-8.9-5s-2.3-4-2.3-6.6c0-3.3 1.3-5.6 4-7.6 2.6-1.7 6.3-2.6 10.6-2.6s8.6 1 12.6 2.6l-2.6 6c-4-1.7-7.6-2.6-10.3-2.6-4.3 0-6.3 1.3-6.3 3.6 0 1.3.7 2.3 1.7 3 1 .7 3.6 2 7.3 3.3 3 1.3 5.3 2.3 6.9 3.3 1.3 1 2.3 2.3 3.3 3.3.9.8.5 3.4.5 5.1zM495.9 224.3c0 6.3-1.7 10.9-4.6 14.6-3 3.6-7.6 5.3-13.2 5.3-3.6 0-6.6-.7-9.3-2.3-2.6-1.7-5-4-6.3-6.9-1.3-3-2.3-6.6-2.3-10.3 0-6.3 1.7-10.9 4.6-14.2 3.3-3.3 7.6-5.3 13.2-5.3s9.9 1.7 12.9 5.3c3 3.6 5 7.9 5 13.8zm-27.8 0c0 8.6 3.3 13.2 9.6 13.2s9.6-4.3 9.6-13.2c0-8.6-3.3-12.9-9.6-12.9-3.3 0-6 1-7.3 3.3-1.3 2.3-2.3 5.6-2.3 9.6zM534.3 243.5H526v-23.2c0-3-.7-5-1.7-6.6-1.3-1.3-3-2.3-5.6-2.3-3.3 0-6 1-7.6 3-1.7 2-2.3 5.3-2.3 10.3v18.9h-7.9v-38h6.3l1 5h.3c1-1.7 2.6-3.3 5-4.3 2-1 4.3-1.3 6.9-1.3 8.9 0 13.6 4.6 13.6 13.9v24.8h.3z"/><path fill="#514D51" d="M269.9 222.3c0-19.5 7.9-29.4 23.8-29.4 2.6 0 4.6.3 6.3.7v6.6c-1.7-.7-3.6-.7-6-.7-5.3 0-9.3 1.3-12.2 4.3-3 3-4.3 7.6-4.3 13.9h.3c1-2 2.6-3.3 4.6-4.3 2-1 4.3-1.7 6.9-1.7 4.6 0 7.9 1.3 10.6 4.3 2.6 2.6 3.6 6.6 3.6 11.2 0 5.3-1.3 9.3-4.3 12.6s-6.9 4.6-11.9 4.6c-3.6 0-6.6-1-9.3-2.6-2.6-1.7-4.6-4.3-6-7.6-1.4-3.3-2.1-7.2-2.1-11.9zm17.2 15.6c2.6 0 5-1 6.3-2.6 1.7-1.7 2.3-4.3 2.3-7.6 0-3-.7-5.3-2-6.6-1.3-1.7-3.6-2.3-6.3-2.3-1.7 0-3.3.3-4.6 1-1.3.7-2.6 1.7-3.3 3-1 1.3-1.3 2.6-1.3 4 0 3.3 1 6 2.6 8.3 1.4 1.4 3.7 2.8 6.3 2.8z"/></g><g fill="#4E4E4E"><path d="M183.9 142.3h22.8V171c-6.3 2-12.9 3.3-20.5 3.3-8.3 0-14.6-2.3-18.9-6.9s-6.6-11.6-6.6-20.2 2.3-15.2 7.3-19.8c5-4.6 11.6-7.3 20.5-7.3 3.3 0 6.6.3 9.6 1s5.6 1.3 7.6 2.3l-4.6 11.2c-4-2.3-7.9-3.3-12.6-3.3-4.3 0-7.3 1.3-9.6 4-2.3 2.6-3.3 6.6-3.3 11.6s1 8.6 3 11.2c2 2.6 5 4 8.9 4 2 0 4-.3 6-.7v-8.3h-9.6v-10.8zM258 145.6c0 8.9-2.3 15.5-7.3 20.5s-11.6 7.3-20.5 7.3H213v-52.9h18.5c8.6 0 15.2 2.3 19.8 6.6s6.7 10.5 6.7 18.5zm-14.9.6c0-5-1-8.6-3-10.9s-5-3.6-8.6-3.6h-4.3v29.8h3.3c4.3 0 7.6-1.3 9.6-3.6s3-6.4 3-11.7zM284.5 142.3h22.8V171c-6.3 2-12.9 3.3-20.5 3.3-8.3 0-14.6-2.3-18.9-6.9-4.3-4.6-6.6-11.6-6.6-20.2s2.3-15.2 7.3-19.8c5-4.6 11.6-7.3 20.5-7.3 3.3 0 6.6.3 9.6 1s5.6 1.3 7.6 2.3l-4.6 11.2c-4-2-7.9-3-12.6-3-4.3 0-7.3 1.3-9.6 4-2.3 2.6-3.3 6.6-3.3 11.6s1 8.6 3 11.2c2 2.6 5 4 8.9 4 2 0 4-.3 6-.7v-8.3h-9.6v-11.1z"/></g><radialGradient id="SVGID_1_" cx="-95.861" cy="845.4" r="20.093" gradientTransform="translate(216.228 -1142.797) scale(1.6474)" gradientUnits="userSpaceOnUse"><stop offset="0" stop-color="#FFCF4F"/><stop offset="1" stop-color="#F4C236"/></radialGradient><path fill="url(#SVGID_1_)" d="M29.4 286.8h22.5c5.3 0 11.9-3.6 14.6-8.3l18.9-31.4c2.3-4.6 2.3-11.2-.3-15.5l-11.2-18.5-44.5 73.7z"/><radialGradient id="SVGID_2_" cx="-107.913" cy="835.159" r="27.652" gradientTransform="translate(216.228 -1142.797) scale(1.6474)" gradientUnits="userSpaceOnUse"><stop offset="0" stop-color="#08A960"/><stop offset="1" stop-color="#07914B"/></radialGradient><path fill="url(#SVGID_2_)" d="M53.6 195.9l-50 83.7c-2 4 0 7.3 5 7.3h20.8l44.3-73.8-20.2-33.7c2.7 4.6 2.7 11.8.1 16.5"/><radialGradient id="SVGID_3_" cx="-98.473" cy="795.4" r="40.583" gradientTransform="translate(216.228 -1142.797) scale(1.6474)" gradientUnits="userSpaceOnUse"><stop offset="0" stop-color="#567FC0"/><stop offset="1" stop-color="#557FC0"/></radialGradient><path fill="url(#SVGID_3_)" d="M8.6 88.3c-5.3 0-7.3 3.6-4.6 8.3l81 134.6c2.6 4.3 2.6 10.9.3 15.5l19.8-32.8L29.4 88.3H8.6z"/><radialGradient id="SVGID_4_" cx="-86.397" cy="785.46" r="33.084" gradientTransform="translate(216.228 -1142.797) scale(1.6474)" gradientUnits="userSpaceOnUse"><stop offset="0" stop-color="#E14C40"/><stop offset="1" stop-color="#CD392D"/></radialGradient><path fill="url(#SVGID_4_)" d="M29.4 88.3L105.2 214l10.9-18.2c2.6-4.6 2.6-11.9 0-16.5L66.5 96.6c-2.6-4.6-9.3-8.3-14.6-8.3H29.4z"/></g><g><g fill="#4E4E4E"><path d="M383.4 353c0 8.9-2.3 15.5-7.3 20.5-5 4.6-11.6 7.3-20.5 7.3h-16.9v-52.9h18.2c8.6 0 14.9 2.3 19.5 6.6 4.7 4.3 7 10.2 7 18.5zm-14.9.3c0-5-1-8.6-3-10.9-2-2.3-5-3.6-8.6-3.6h-4.3v29.8h3.3c4.3 0 7.6-1.3 9.6-3.6 2-2.4 3-6.4 3-11.7zM407.2 381.1c-6.9 0-11.9-2-15.9-5.6-3.6-3.6-5.6-8.9-5.6-15.5 0-6.9 1.7-12.2 5.3-15.9 3.6-3.6 8.6-5.6 14.9-5.6 6.3 0 10.9 1.7 14.2 5s5 7.9 5 13.9v6.3H400c0 2.3 1 4 2.6 5.3 1.7 1.3 3.6 2 6.3 2 2.3 0 4.6-.3 6.9-.7 2-.3 4.3-1.3 6.6-2.3v10.3c-2.3 1-4.6 2-6.9 2.3-2 .5-5 .5-8.3.5zm-.6-32.7c-1.7 0-3 .7-4.3 1.7-1 1-1.7 2.6-2 5h12.2c0-2-.7-3.6-1.7-4.6-.9-1.1-2.6-2.1-4.2-2.1zM439.6 380.5l-15.5-41h14.6l6.9 24.1v.7s0 .7.3 1c0 .3 0 .7.3 1.3v1.3h.3c0-1.3.3-2.6.7-4l7.3-24.5h14.6l-15.5 41-14 .1zM484.3 380.5h-13.9v-52.9h31.1v11.6h-17.2v10.3h15.9v11.6h-15.9v19.4zM524.3 381.1c-6.9 0-11.9-2-15.9-5.6-4-3.6-5.6-8.9-5.6-15.5 0-6.9 1.7-12.2 5.3-15.9 3.6-3.6 8.6-5.6 14.9-5.6s10.9 1.7 14.2 5c3.3 3.3 5 7.9 5 13.9v6.3h-25.1c0 2.3 1 4 2.6 5.3 1.7 1.3 3.6 2 6.3 2 2.3 0 4.6-.3 6.9-.7 2.3-.3 4.3-1.3 6.6-2.3v10.3c-2.3 1-4.6 2-6.9 2.3-2 .5-5 .5-8.3.5zm-.6-32.7c-1.7 0-3 .7-4.3 1.7-1 1-1.7 2.6-2 5h12.2c0-2-.7-3.6-1.7-4.6-.9-1.5-2.6-2.1-4.2-2.1zM577.3 367.9c0 4.3-1.3 7.6-4.6 9.9-3 2.3-7.3 3.3-12.9 3.3-3 0-5.6-.3-7.9-.3s-4.6-1-6.9-1.7v-11.2c2.3 1 4.6 1.7 7.3 2.3 2.6.7 5 1 6.9 1 3 0 4.6-.7 4.6-2 0-.7-.3-1.3-1.3-2s-3.3-1.7-7.3-3.3c-3.6-1.7-6.3-3.3-7.9-5.3-1.3-2-2.3-4.6-2.3-7.6 0-4 1.3-6.9 4.3-8.9s6.9-3.3 12.6-3.3c2.6 0 5.3.3 7.6 1s5 1.3 7.3 2.6l-4 9.3c-2-1-4-1.7-6-2.3-2-.7-3.6-1-5-1-2.3 0-3.3.7-3.3 1.7 0 .7.3 1.3 1.3 1.7.7.3 3 1.7 6.9 3 3 1.3 5 2.3 6.3 3.6 1.3 1.3 2.3 2.3 3 4 .9 1.5 1.3 3.2 1.3 5.5zM600.8 370.2c2 0 4.3-.3 6.9-1.3v10.3c-2 .7-3.6 1.3-5.3 1.7s-3.6.7-6 .7c-4.6 0-8.3-1.3-10.3-3.6s-3-6-3-10.9V350h-5v-5.6l6.3-4.3 3.6-8.6h9.3v8.3h9.9v10.6h-9.9v15.9c-.2 2.6.8 3.9 3.5 3.9z"/></g><g><path fill="#4E4E4E" d="M199.5 451.9h-34.1v-6.3l12.9-12.9c4-4 6.3-6.6 7.6-8.3 1.3-1.7 2.3-3.3 2.6-4.6.7-1.3 1-3 1-4.6 0-2.3-.7-4-2-5.3-1.3-1.3-3.3-2-5.6-2-2 0-3.6.3-5.6 1-1.7.7-4 2-6.3 4l-4.3-5.3c2.6-2.3 5.6-4 8.3-5 2.6-1 5.3-1.3 8.3-1.3 4.6 0 8.3 1.3 11.2 3.6 3 2.3 4.3 5.6 4.3 9.9 0 2.3-.3 4.3-1.3 6.3-.7 2-2 4-3.6 6.3-1.7 2.3-4.3 5-8.3 8.6l-8.6 8.3v.3h23.8l-.3 7.3zM235.2 426.8c0 8.6-1.3 15.2-4.3 19.5-2.6 4.3-6.9 6.3-12.9 6.3-5.6 0-9.9-2.3-12.6-6.6-3-4.3-4.3-10.6-4.3-19.2 0-8.9 1.3-15.2 4.3-19.5 2.6-4.3 6.9-6.3 12.9-6.3 5.6 0 9.9 2.3 12.6 6.6 2.7 4.3 4.3 10.9 4.3 19.2zm-25.8 0c0 6.9.7 11.6 2 14.6s3.6 4.3 6.6 4.3 5.3-1.3 6.6-4.3c1.3-3 2-7.9 2-14.6s-.7-11.6-2-14.6-3.6-4.6-6.6-4.6-5.3 1.3-6.6 4.3c-1.3 3.3-2 8.2-2 14.9zM260.7 451.9h-7.9v-32.4c0-4 0-6.9.3-9.3-.7.7-1.3 1-2 1.7s-3.3 2.6-7.6 6.3l-4-5 14.6-11.6h6.6v50.3zM355 438.3c0 4.3-1.7 7.9-5 10.6-3.3 2.6-7.6 3.6-13.2 3.6s-10.3-1-13.9-2.6v-7.6c2.3 1 4.6 2 7.3 2.6 2.6.7 5 1 7.3 1 3.3 0 5.6-.7 7.3-2s2.3-3 2.3-5-.7-3.3-2-4.6c-1.3-1.3-4.3-3-8.6-4.6-4.6-2-7.9-4-9.6-6.3-2-2.3-2.6-5.3-2.6-8.6 0-4.3 1.3-7.6 4.3-9.9 3-2.3 6.9-3.6 11.9-3.6 4.6 0 9.6 1 14.2 3.3l-2.6 6.6c-4.3-2-8.3-2.6-11.9-2.6-2.6 0-4.6.7-6 1.7-1.3 1-2 2.6-2 4.6 0 1.3.3 2.3.7 3.3.3 1 1.3 1.7 2.6 2.6 1.3.7 3.6 2 6.6 3.3 3.6 1.7 6.3 3 7.9 4.3s3 3 3.6 4.6c1 1 1.4 3 1.4 5.3zM376.1 452.6c-6 0-10.6-1.7-13.9-5.3s-5-8.3-5-14.2c0-6.3 1.7-10.9 4.6-14.6 3-3.6 7.3-5.3 12.6-5.3 5 0 8.9 1.7 11.9 4.6 3 3 4.3 7.3 4.3 12.6v4.3h-25.1c0 3.6 1 6.6 3 8.6s4.6 3 7.9 3c2.3 0 4.3-.3 6.3-.7s4-1 6.3-2v6.6c-2 1-4 1.7-6 2s-4.2.4-6.9.4zm-1.3-33.1c-2.6 0-4.6.7-6.3 2.3s-2.3 4-2.6 6.9h17.2c0-3-.7-5.6-2.3-6.9s-3.3-2.3-6-2.3zM419.5 451.9l-1.7-5.3h-.3c-2 2.3-3.6 4-5.6 4.6-2 1-4.3 1.3-7.3 1.3-3.6 0-6.6-1-8.6-3s-3-5-3-8.6c0-4 1.3-6.9 4.3-8.9s7.3-3 13.2-3.3l6.6-.3v-2c0-2.3-.7-4.3-1.7-5.3-1-1.3-3-1.7-5.3-1.7-2 0-3.6.3-5.6 1-1.7.7-3.6 1.3-5.3 2l-2.6-5.6c2-1 4.3-2 6.6-2.3 2.3-.3 4.6-1 6.9-1 5 0 8.6 1 10.9 3.3 2.3 2 3.6 5.3 3.6 9.9v25.5c.8-.3-5.1-.3-5.1-.3zm-11.9-5.6c3 0 5.3-.7 6.9-2.3s2.6-4 2.6-6.9v-3.3l-5 .3c-3.6 0-6.6.7-8.3 2-1.7 1-2.6 3-2.6 5.3 0 1.7.7 3 1.7 4 1 .6 2.7.9 4.7.9zM457.8 441c0 3.6-1.3 6.6-4 8.6-2.6 2-6.6 3-11.6 3s-8.9-.7-12.2-2.3v-6.9c4.3 2 8.6 3 12.6 3 5 0 7.3-1.7 7.3-4.6 0-1-.3-1.7-.7-2.3-.7-.7-1.3-1.3-2.6-2s-3-1.3-5.3-2.3c-4.3-1.7-7.3-3.3-8.9-5s-2.3-4-2.3-6.6c0-3.3 1.3-5.6 4-7.6 2.6-1.7 6.3-2.6 10.6-2.6s8.6 1 12.6 2.6l-2.6 6c-4-1.7-7.6-2.6-10.3-2.6-4.3 0-6.3 1.3-6.3 3.6 0 1.3.7 2.3 1.7 3 1 .7 3.6 2 7.3 3.3 3 1.3 5.3 2.3 6.9 3.3 1.3 1 2.3 2.3 3.3 3.6.9 1.2.5 3.1.5 4.8zM495.9 432.7c0 6.3-1.7 10.9-4.6 14.6-3.3 3.3-7.6 5.3-13.2 5.3-3.6 0-6.6-.7-9.3-2.3-2.6-1.7-5-4-6.3-6.9-1.3-3-2.3-6.6-2.3-10.3 0-6.3 1.7-10.9 4.6-14.2 3.3-3.3 7.6-5.3 13.2-5.3s9.9 1.7 12.9 5.3c3 3.6 5 7.9 5 13.8zm-27.8 0c0 8.6 3.3 13.2 9.6 13.2s9.6-4.3 9.6-13.2c0-8.6-3.3-12.9-9.6-12.9-3.3 0-6 1-7.3 3.3-1.3 2.3-2.3 5.7-2.3 9.6zM534.3 451.9H526v-23.2c0-3-.7-5-1.7-6.6-1.3-1.3-3-2.3-5.6-2.3-3.3 0-6 1-7.6 3-1.7 2-2.3 5.3-2.3 10.3V452h-7.9v-38h6.3l1 5h.3c1-1.7 2.6-3.3 5-4.3 2-1 4.3-1.3 6.9-1.3 8.9 0 13.6 4.6 13.6 13.9v24.8h.3z"/><g><path fill="#504D50" d="M269.9 431.1c0-19.5 7.9-29.4 24.1-29.4 2.6 0 4.6.3 6.3.7v6.6c-1.7-.7-3.6-.7-6-.7-5.3 0-9.6 1.3-12.2 4.3-2.6 3-4.3 7.6-4.3 13.9h.3c1-2 2.6-3.3 4.6-4.3s4.3-1.7 6.9-1.7c4.6 0 8.3 1.3 10.6 4.3 2.3 3 4 6.6 4 11.2 0 5.3-1.3 9.6-4.3 12.6s-6.9 4.6-11.9 4.6c-3.6 0-6.6-1-9.3-2.6s-4.6-4.3-6.3-7.6c-1.8-3.3-2.5-7.3-2.5-11.9zm17.6 15.5c2.6 0 5-1 6.3-2.6 1.7-1.7 2.3-4.3 2.3-7.6 0-3-.7-5.3-2-6.9s-3.6-2.3-6.3-2.3c-1.7 0-3.3.3-5 1-1.7.7-2.6 1.7-3.6 3s-1.3 2.6-1.3 4c0 3.3 1 6 2.6 8.3 2 1.8 4 3.1 7 3.1z"/></g></g><g fill="#4E4E4E"><path d="M183.9 350.7h22.8v28.8c-6.3 2-12.9 3.3-20.5 3.3-8.3 0-14.6-2.3-18.9-7.3s-6.6-11.6-6.6-20.2 2.3-15.2 7.3-19.8c5-4.6 11.6-7.3 20.5-7.3 3.3 0 6.6.3 9.6 1s5.6 1.3 7.6 2.3l-4.6 11.2c-4-2-7.9-3-12.6-3-4.3 0-7.3 1.3-9.6 4-2.3 2.6-3.3 6.6-3.3 11.6s1 8.6 3 11.2c2 2.6 5 4 8.9 4 2 0 4-.3 6-.7v-8.3h-9.6v-10.8zM258 354c0 8.9-2.3 15.5-7.3 20.5-5 4.6-11.6 7.3-20.5 7.3H213v-52.9h18.5c8.6 0 15.2 2.3 19.8 6.6 4.7 4.3 6.7 10.5 6.7 18.5zm-14.9.6c0-5-1-8.6-3-10.9-2-2.3-5-3.6-8.6-3.6h-4.3v29.8h3.3c4.3 0 7.6-1.3 9.6-3.6 2.1-2.7 3-6.4 3-11.7zM284.5 350.7h22.8v28.8c-6.3 2-12.9 3.3-20.5 3.3-8.3 0-14.6-2.3-18.9-7.3-4.3-5-6.6-11.6-6.6-20.2s2.3-15.2 7.3-19.8c5-4.6 11.6-7.3 20.5-7.3 3.3 0 6.6.3 9.6 1s5.6 1.3 7.6 2.3l-4.6 11.2c-4-2-7.9-3-12.6-3-4.3 0-7.3 1.3-9.6 4-2.3 2.6-3.3 6.6-3.3 11.6s1 8.6 3 11.2c2 2.6 5 4 8.9 4 2 0 4-.3 6-.7v-8.3h-9.6v-10.8z"/></g><radialGradient id="SVGID_5_" cx="-95.861" cy="971.906" r="20.093" gradientTransform="translate(216.228 -1142.797) scale(1.6474)" gradientUnits="userSpaceOnUse"><stop offset="0" stop-color="#CCC"/><stop offset="1" stop-color="#C0C0C0"/></radialGradient><path fill="url(#SVGID_5_)" d="M29.4 495.2h22.5c5.3 0 11.9-3.6 14.6-8.3l18.9-31.4c2.3-4.6 2.3-11.2-.3-15.5l-11.2-18.5-44.5 73.7z"/><radialGradient id="SVGID_6_" cx="-107.913" cy="961.665" r="27.652" gradientTransform="translate(216.228 -1142.797) scale(1.6474)" gradientUnits="userSpaceOnUse"><stop offset="0" stop-color="#A0A0A0"/><stop offset="1" stop-color="#7B7B7B"/></radialGradient><path fill="url(#SVGID_6_)" d="M53.6 404.3L3.6 488c-2 4 0 7.3 5 7.3h20.8l44.3-73.8-20.2-33.7c2.7 4.6 2.7 11.8.1 16.5"/><radialGradient id="SVGID_7_" cx="-98.517" cy="921.906" r="40.6" gradientTransform="translate(216.228 -1142.797) scale(1.6474)" gradientUnits="userSpaceOnUse"><stop offset="0" stop-color="#848484"/><stop offset="1" stop-color="#838383"/></radialGradient><path fill="url(#SVGID_7_)" d="M8.6 296.8c-5.3 0-7.6 3.6-4.6 8.3l81 134.6c2.6 4.3 2.6 10.9.3 15.5l19.8-32.8-75.7-125.6H8.6z"/><radialGradient id="SVGID_8_" cx="-86.397" cy="911.966" r="33.084" gradientTransform="translate(216.228 -1142.797) scale(1.6474)" gradientUnits="userSpaceOnUse"><stop offset="0" stop-color="#626262"/><stop offset="1" stop-color="#474747"/></radialGradient><path fill="url(#SVGID_8_)" d="M29.4 296.8l75.8 125.7 10.9-18.2c2.6-4.6 2.6-11.9 0-16.5L66.5 305c-2.6-4.6-9.3-8.3-14.6-8.3H29.4z"/></g><g><g fill="#E6E6E5"><path d="M384.1 561.4c0 8.9-2.3 15.5-7.3 20.5s-11.6 7.3-20.5 7.3h-16.9v-52.9h18.2c8.6 0 14.9 2.3 19.5 6.6 4.7 4.3 7 10.2 7 18.5zm-14.9.3c0-5-1-8.6-3-10.9s-5-3.6-8.6-3.6h-4.3V577h3.3c4.3 0 7.6-1.3 9.6-3.6 2-2.4 3-6.4 3-11.7zM407.9 589.5c-6.9 0-11.9-2-15.9-5.6-4-3.6-5.6-8.9-5.6-15.5 0-6.9 1.7-12.2 5.3-15.9 3.6-3.6 8.6-5.6 14.9-5.6 6.3 0 10.9 1.7 14.2 5 3.3 3.3 5 7.9 5 13.9v6.3h-25.1c0 2.3 1 4 2.6 5.3 1.7 1.3 3.6 2 6.3 2 2.3 0 4.6-.3 6.9-.7 2-.3 4.3-1.3 6.6-2.3v10.3c-2.3 1-4.6 2-6.9 2.3-2.4.5-5 .5-8.3.5zm-1-32.7c-1.7 0-3 .7-4.3 1.7-1 1-1.7 2.6-2 5h12.2c0-2-.7-3.6-1.7-4.6-.9-1.5-2.2-2.1-4.2-2.1zM440 588.9l-15.5-41H439l6.9 24.1v.7c0 .3 0 .7.3 1 0 .3 0 .7.3 1.3v1.3h.3c0-1.3.3-2.6.7-4l7.3-24.5h14.6l-15.5 41H440v.1zM484.6 588.9h-13.9V536h31.1v11.6h-17.2v10.3h15.9v11.6h-15.9v19.4zM525 589.5c-6.9 0-11.9-2-15.9-5.6-4-3.6-5.6-8.9-5.6-15.5 0-6.9 1.7-12.2 5.3-15.9 3.6-3.6 8.6-5.6 14.9-5.6s10.9 1.7 14.2 5 5 7.9 5 13.9v6.3h-25.1c0 2.3 1 4 2.6 5.3 1.7 1.3 3.6 2 6.3 2 2.3 0 4.6-.3 6.9-.7 2.3-.3 4.3-1.3 6.6-2.3v10.3c-2.3 1-4.6 2-6.9 2.3-2.3.5-5 .5-8.3.5zm-1-32.7c-1.7 0-3 .7-4.3 1.7-1 1-1.7 2.6-2 5H530c0-2-.7-3.6-1.7-4.6-1-1.5-2.3-2.1-4.3-2.1zM577.9 576.3c0 4.3-1.3 7.6-4.6 9.9-3 2.3-7.3 3.3-12.9 3.3-3 0-5.6-.3-7.9-.3s-4.6-1-6.9-1.7v-11.2c2.3 1 4.6 1.7 7.3 2.3 2.6.7 5 1 6.9 1 3 0 4.6-.7 4.6-2 0-.7-.3-1.3-1.3-2s-3.3-1.7-7.3-3.3c-3.6-1.7-6.3-3.3-7.9-5.3-1.3-2-2.3-4.6-2.3-7.6 0-4 1.3-6.9 4.3-8.9s6.9-3.3 12.6-3.3c2.6 0 5.3.3 7.6 1s5 1.3 7.3 2.6l-4 9.3c-2-1-4-1.7-6-2.3s-3.6-1-5-1c-2.3 0-3.3.7-3.3 1.7 0 .7.3 1.3 1.3 1.7.7.3 3 1.7 6.9 3 3 1.3 5 2.3 6.3 3.6 1.3 1 2.3 2.3 3 4 1 1.5 1.3 3.2 1.3 5.5zM601.4 578.6c2 0 4.3-.3 6.9-1.3v10.3c-2 .7-3.6 1.3-5.3 1.7s-3.6.7-6 .7c-4.6 0-8.3-1.3-10.3-3.6s-3-6-3-10.9v-16.9h-5V553l6.3-4.3 3.6-8.6h9.3v8.3h9.9V559h-9.9v15.9c-.5 2.4.9 3.7 3.5 3.7z"/></g><g><path fill="#E6E6E5" d="M199.8 660.3h-33.7V654l12.9-12.9c4-4 6.3-6.6 7.6-8.3s2.3-3.3 2.6-4.6c.7-1.3 1-3 1-4.6 0-2.3-.7-4-2-5.3s-3.3-2-5.6-2c-2 0-3.6.3-5.6 1-1.7.7-4 2-6.3 4l-4.3-5.3c2.6-2.3 5.6-4 8.3-5s5.3-1.3 8.3-1.3c4.6 0 8.3 1.3 11.2 3.6 3 2.3 4.3 5.6 4.3 9.9 0 2.3-.3 4.3-1.3 6.3-.7 2-2 4-3.6 6.3s-4.3 5-8.3 8.6l-8.6 8.3v.3h23.8l-.7 7.3zM235.9 635.2c0 8.6-1.3 15.2-4.3 19.5-2.6 4.3-6.9 6.3-12.9 6.3-5.6 0-9.9-2.3-12.6-6.6-3-4.3-4.3-10.6-4.3-19.2 0-8.9 1.3-15.2 4.3-19.5 2.6-4.3 6.9-6.3 12.9-6.3 5.6 0 9.9 2.3 12.6 6.6s4.3 10.9 4.3 19.2zm-25.8 0c0 6.9.7 11.6 2 14.6s3.6 4.3 6.6 4.3c3 0 5.3-1.3 6.6-4.3 1.3-3 2-7.9 2-14.6s-.7-11.6-2-14.6-3.6-4.6-6.6-4.6c-3 0-5.3 1.3-6.6 4.3-1.4 3.3-2 8.3-2 14.9zM261.3 660.3h-7.9v-32.4c0-4 0-6.9.3-9.3-.7.7-1.3 1-2 1.7s-3.3 2.6-7.6 6.3l-4-5 14.6-11.6h6.6v50.3zM355.6 646.8c0 4.3-1.7 7.9-5 10.6-3.3 2.6-7.6 3.6-13.2 3.6s-10.3-1-13.9-2.6v-7.6c2.3 1 4.6 2 7.3 2.6 2.6.7 5 1 7.3 1 3.3 0 5.6-.7 7.3-2 1.7-1.3 2.3-3 2.3-5s-.7-3.3-2-4.6c-1.3-1.3-4.3-3-8.6-4.6-4.6-2-7.9-4-9.6-6.3-2-2.3-2.6-5.3-2.6-8.6 0-4.3 1.3-7.6 4.3-9.9 3-2.3 6.9-3.6 11.9-3.6 4.6 0 9.6 1 14.2 3.3l-2.6 6.6c-4.3-2-8.3-2.6-11.9-2.6-2.6 0-4.6.7-6 1.7-1.3 1-2 2.6-2 4.6 0 1.3.3 2.3.7 3.3s1.3 1.7 2.6 2.6c1.3.7 3.6 2 6.6 3.3 3.6 1.7 6.3 3 7.9 4.3s3 3 3.6 4.6c1.1 1 1.4 2.9 1.4 5.3zM376.8 661c-6 0-10.6-1.7-13.9-5.3-3.3-3.6-5-8.3-5-14.2 0-6.3 1.7-10.9 4.6-14.6s7.3-5.3 12.6-5.3c5 0 8.9 1.7 11.9 4.6 3 3 4.3 7.3 4.3 12.6v4.3h-25.1c0 3.6 1 6.6 3 8.6s4.6 3 7.9 3c2.3 0 4.3-.3 6.3-.7s4-1 6.3-2v6.6c-2 1-4 1.7-6 2-1.9.4-4.3.4-6.9.4zm-1.7-33.1c-2.6 0-4.6.7-6.3 2.3s-2.3 4-2.6 6.9h17.2c0-3-.7-5.6-2.3-6.9-1.7-1.3-3.3-2.3-6-2.3zM420.1 660.3l-1.7-5.3h-.3c-2 2.3-3.6 4-5.6 4.6-2 1-4.3 1.3-7.3 1.3-3.6 0-6.6-1-8.6-3s-3-5-3-8.6c0-4 1.3-6.9 4.3-8.9s7.3-3 13.2-3.3l6.6-.3v-2c0-2.3-.7-4.3-1.7-5.3-1-1.3-3-1.7-5.3-1.7-2 0-3.6.3-5.6 1-1.7.7-3.6 1.3-5.3 2l-2.6-5.6c2-1 4.3-2 6.6-2.3 2.3-.3 4.6-1 6.9-1 5 0 8.6 1 10.9 3.3 2.3 2 3.6 5.3 3.6 9.9v25.5l-5.1-.3zm-11.9-5.6c3 0 5.3-.7 6.9-2.3s2.6-4 2.6-6.9v-3.3l-5 .3c-3.6 0-6.6.7-8.3 2-1.7 1-2.6 3-2.6 5.3 0 1.7.7 3 1.7 4 1.1.6 2.7.9 4.7.9zM458.2 649.4c0 3.6-1.3 6.6-4 8.6-2.6 2-6.6 3-11.6 3s-8.9-.7-12.2-2.3v-6.9c4.3 2 8.6 3 12.6 3 5 0 7.3-1.7 7.3-4.6 0-1-.3-1.7-.7-2.3-.7-.7-1.3-1.3-2.6-2s-3-1.3-5.3-2.3c-4.3-1.7-7.3-3.3-8.9-5s-2.3-4-2.3-6.6c0-3.3 1.3-5.6 4-7.6 2.6-1.7 6.3-2.6 10.6-2.6s8.6 1 12.6 2.6l-2.6 6c-4-1.7-7.6-2.6-10.3-2.6-4.3 0-6.3 1.3-6.3 3.6 0 1.3.7 2.3 1.7 3 1 .7 3.6 2 7.3 3.3 3 1.3 5.3 2.3 6.9 3.3 1.3 1 2.3 2.3 3.3 3.6.8 1.2.5 3.1.5 4.8zM496.2 641.1c0 6.3-1.7 10.9-4.6 14.6-3.3 3.3-7.6 5.3-13.2 5.3-3.6 0-6.6-.7-9.3-2.3-2.6-1.7-5-4-6.3-6.9-1.3-3-2.3-6.6-2.3-10.3 0-6.3 1.7-10.9 4.6-14.2 3.3-3.3 7.6-5.3 13.2-5.3s9.9 1.7 12.9 5.3c3 3.6 5 7.9 5 13.8zm-27.4 0c0 8.6 3.3 13.2 9.6 13.2s9.6-4.3 9.6-13.2c0-8.6-3.3-12.9-9.6-12.9-3.3 0-6 1-7.3 3.3-1.7 2.4-2.3 5.7-2.3 9.6zM534.6 660.3h-7.9v-23.2c0-3-.7-5-1.7-6.6-1.3-1.3-3-2.3-5.6-2.3-3.3 0-6 1-7.6 3-1.7 2-2.3 5.3-2.3 10.3v18.9h-7.9v-37.7h6.3l1 5h.3c1-1.7 2.6-3.3 5-4.3 2-1 4.3-1.3 6.9-1.3 8.9 0 13.6 4.6 13.6 13.9l-.1 24.3z"/><g><path fill="#E6E6E5" d="M269.9 639.5c0-19.5 7.9-29.4 23.8-29.4 2.6 0 4.6.3 6.3.7v6.6c-1.7-.7-3.6-.7-6-.7-5.3 0-9.3 1.3-12.2 4.3-2.6 3-4.3 7.6-4.3 13.9h.3c1-2 2.6-3.3 4.6-4.3 2-1 4.3-1.7 6.9-1.7 4.6 0 7.9 1.3 10.6 4.3 2.6 2.6 3.6 6.6 3.6 11.2 0 5.3-1.3 9.3-4.3 12.6-3 3-6.9 4.6-11.9 4.6-3.6 0-6.6-1-9.3-2.6-2.6-1.7-4.6-4.3-6-7.6-1.4-3.3-2.1-7.3-2.1-11.9zm17.2 15.5c2.6 0 5-1 6.3-2.6 1.7-1.7 2.3-4.3 2.3-7.6 0-3-.7-5.3-2-6.6-1.3-1.7-3.6-2.3-6.3-2.3-1.7 0-3.3.3-4.6 1-1.3.7-2.6 1.7-3.3 3-.7 1.3-1.3 2.6-1.3 4 0 3.3 1 6 2.6 8.3 1.7 2.2 3.7 2.8 6.3 2.8z"/></g></g><g fill="#E6E6E5"><path d="M184.3 559.1h22.8v28.4c-6.3 2-12.9 3.3-20.5 3.3-8.3 0-14.6-2.3-18.9-6.9-4.3-4.6-6.6-11.6-6.6-20.2s2.3-15.2 7.3-19.8c5-4.6 11.6-7.3 20.5-7.3 3.3 0 6.6.3 9.6 1s5.6 1.3 7.6 2.3l-4.6 11.2c-4-2-7.9-3-12.6-3-4.3 0-7.3 1.3-9.6 4-2.3 2.6-3.3 6.6-3.3 11.6s1 8.6 3 11.2c2 2.6 5 4 8.9 4 2 0 4-.3 6-.7V570h-9.6v-10.9zM258.7 562.4c0 8.9-2.3 15.5-7.3 20.5s-11.6 7.3-20.5 7.3h-17.2v-52.9h18.5c8.6 0 15.2 2.3 19.8 6.6s6.7 10.6 6.7 18.5zm-14.9.7c0-5-1-8.6-3-10.9-2-2.3-5-3.6-8.6-3.6h-4.3v29.8h3.3c4.3 0 7.6-1.3 9.6-3.6 2-2.8 3-6.4 3-11.7zM285.2 559.1H308v28.4c-6.3 2-12.9 3.3-20.5 3.3-8.3 0-14.6-2.3-18.9-6.9-4.3-4.6-6.6-11.6-6.6-20.2s2.3-15.2 7.3-19.8c5-4.6 11.6-7.3 20.5-7.3 3.3 0 6.6.3 9.6 1s5.6 1.3 7.6 2.3l-4.6 11.2c-4-2-7.9-3-12.6-3-4.3 0-7.3 1.3-9.6 4-2.3 2.6-3.3 6.6-3.3 11.6s1 8.6 3 11.2c2 2.6 5 4 8.9 4 2 0 4-.3 6-.7V570h-9.6v-10.9z"/></g><radialGradient id="SVGID_9_" cx="-95.544" cy="1098.412" r="20.108" gradientTransform="translate(216.228 -1142.797) scale(1.6474)" gradientUnits="userSpaceOnUse"><stop offset="0" stop-color="#FFCF4F"/><stop offset="1" stop-color="#F4C236"/></radialGradient><path fill="url(#SVGID_9_)" d="M30.1 703.7h22.5c5.3 0 11.9-3.6 14.6-8.3L86 664c2.3-4.6 2.3-11.2-.3-15.5L74.5 630l-44.4 73.7z"/><radialGradient id="SVGID_10_" cx="-107.587" cy="1088.171" r="27.638" gradientTransform="translate(216.228 -1142.797) scale(1.6474)" gradientUnits="userSpaceOnUse"><stop offset="0" stop-color="#08A960"/><stop offset="1" stop-color="#07914B"/></radialGradient><path fill="url(#SVGID_10_)" d="M54.3 612.7l-50 83.7c-2 4 0 7.3 5 7.3h20.8l44.3-73.8-20.2-33.7c2.7 4.6 2.7 11.8.1 16.5"/><radialGradient id="SVGID_11_" cx="-98.116" cy="1048.412" r="40.568" gradientTransform="translate(216.228 -1142.797) scale(1.6474)" gradientUnits="userSpaceOnUse"><stop offset="0" stop-color="#567FC0"/><stop offset="1" stop-color="#557FC0"/></radialGradient><path fill="url(#SVGID_11_)" d="M9.3 505.2c-5.3 0-7.6 3.6-4.6 8.3l81 134.6c2.6 4.3 2.6 10.9.3 15.5l19.8-32.8-75.7-125.6H9.3z"/><radialGradient id="SVGID_12_" cx="-86.07" cy="1038.472" r="33.08" gradientTransform="translate(216.228 -1142.797) scale(1.6474)" gradientUnits="userSpaceOnUse"><stop offset="0" stop-color="#E14C40"/><stop offset="1" stop-color="#CD392D"/></radialGradient><path fill="url(#SVGID_12_)" d="M30.1 505.2l75.8 125.7 10.9-18.2c2.6-4.6 2.6-11.9 0-16.5l-49.6-82.7c-2.6-4.6-9.3-8.3-14.6-8.3H30.1z"/></g></g></svg>